<svg viewBox="0 0 32 32" fill="none" xmlns="http://www.w3.org/2000/svg">
  <rect width="32" height="32" rx="8" fill="#F2EFE9"/>
  <defs>
    <linearGradient id="cupGradIcon" x1="0" y1="0" x2="1" y2="0">
      <stop offset="0%" stopColor="#FFFFFF" />
      <stop offset="100%" stopColor="#D9D3C7" />
    </linearGradient>
    <linearGradient id="sleeveGradIcon" x1="0" y1="0" x2="1" y2="0">
      <stop offset="0%" stopColor="#6F4E37" />
      <stop offset="100%" stopColor="#3E2723" />
    </linearGradient>
  </defs>
  
  {/* Cup body */}
  <path d="M8 8 L24 8 L22 28 Q21 30 16 30 Q11 30 10 28 Z" fill="url(#cupGradIcon)"/>
  
  {/* Sleeve */}
  <path d="M9 18 L10 28 Q11 30 16 30 Q21 30 22 28 L23 18 Z" fill="url(#sleeveGradIcon)"/>
  
  {/* Lid */}
  <ellipse cx="16" cy="8.5" rx="9" ry="2.5" fill="#CFC8BF" stroke="#A8A09A" stroke-width="0.5"/>
  <path d="M8 8 C8 5 10 5 16 5 C22 5 24 5 24 8" stroke="#A8A09A" stroke-width="1" fill="#CFC8BF"/>
  
  {/* Emblem dot */}
  <circle cx="16" cy="24" r="3.5" fill="#F8F4F0" opacity="0.9"/>
  <path d="M14 26 L16 22 L18 26 Z" fill="#6F4E37"/>
</svg>
